<?xml version="1.0" encoding="UTF-8"?>
<svg id="Layer_1" xmlns="http://www.w3.org/2000/svg" version="1.1" viewBox="0 0 1005.28 460.03">
  <!-- Generator: Adobe Illustrator 29.5.1, SVG Export Plug-In . SVG Version: 2.1.0 Build 141)  -->
  <defs>
    <style>
      .st0 {
        fill: #ffd300;
      }
    </style>
  </defs>
  <g>
    <polygon class="st0" points="263.49 284.73 263.49 310.13 301.09 273.14 301.09 168.6 263.49 146.9 263.49 236.59 244.7 273.43 244.7 138.09 207.1 116.39 207.1 365.44 244.7 328.44 263.49 284.73"/>
    <polygon class="st0" points="150.7 113.33 150.7 385.07 169.5 402.52 188.3 385.07 188.3 113.33 169.5 102.53 150.7 113.33"/>
    <polygon class="st0" points="150.7 60.57 150.7 98.99 169.5 87.58 188.3 98.99 188.3 60.57 169.5 49.77 150.7 60.57"/>
    <polygon class="st0" points="37.91 273.14 75.51 310.13 75.51 235.69 131.91 203.82 131.91 116.39 94.31 138.08 94.31 187.47 75.51 198.09 75.51 135.85 131.91 103 131.91 65.4 37.91 120.15 37.91 273.14"/>
    <polygon class="st0" points="301.09 120.15 207.1 65.4 207.1 103 301.09 157.75 301.09 120.15"/>
    <path class="st0" d="M169.5,0L0,97.86v194.17l169.72,167.99,169.28-168V97.86L169.5,0ZM319.66,283.97l-149.95,148.82L19.34,283.97V109.03L169.5,22.33l150.16,86.69v174.95Z"/>
  </g>
  <g>
    <path class="st0" d="M466.22,142.26h-8.31v-3.49c-2.53-.11-4.68-.48-6.44-1.12-1.76-.64-3.2-1.46-4.31-2.47s-1.91-2.17-2.41-3.49-.75-2.7-.75-4.16c0-1.57.27-3.03.82-4.36.55-1.33,1.39-2.5,2.52-3.49s2.58-1.79,4.33-2.39,3.83-.96,6.23-1.07v-3.16h8.31v3.16c2.41.11,4.48.46,6.23,1.07s3.19,1.4,4.33,2.39,1.98,2.15,2.52,3.49c.55,1.33.82,2.79.82,4.36,0,1.46-.25,2.85-.76,4.16s-1.31,2.47-2.42,3.49-2.54,1.83-4.31,2.47c-1.76.63-3.9,1.01-6.42,1.12v3.49ZM452.07,127.53c0,.77.11,1.49.34,2.16.23.68.58,1.27,1.06,1.77s1.08.91,1.81,1.2c.73.29,1.61.44,2.64.44v-11.22c-1.03,0-1.9.15-2.64.45s-1.34.71-1.81,1.22c-.48.51-.83,1.11-1.06,1.79s-.34,1.41-.34,2.17ZM472.06,127.53c0-.77-.11-1.49-.34-2.17s-.58-1.28-1.06-1.79c-.48-.51-1.08-.92-1.82-1.22s-1.61-.45-2.63-.45v11.22c1.03,0,1.9-.15,2.63-.44.73-.29,1.34-.69,1.82-1.2s.83-1.1,1.06-1.77c.23-.68.34-1.4.34-2.16Z"/>
    <path class="st0" d="M515.84,127.65c0,1.96-.33,3.81-1,5.58s-1.68,3.32-3.03,4.66-3.03,2.4-5.04,3.19c-2.02.79-4.37,1.18-7.06,1.18-1.85,0-3.53-.19-5.04-.57s-2.88-.91-4.07-1.58-2.23-1.47-3.11-2.39c-.88-.92-1.6-1.92-2.18-3s-1.01-2.22-1.29-3.41-.42-2.41-.42-3.64c0-1.85.32-3.64.95-5.38.64-1.74,1.61-3.3,2.93-4.67s2.99-2.46,5.02-3.29,4.43-1.24,7.21-1.24,5.07.4,7.1,1.2c2.02.8,3.71,1.87,5.04,3.21s2.34,2.89,3,4.64c.66,1.76,1,3.6,1,5.53ZM492.32,127.65c0,1.07.17,2.05.5,2.94s.82,1.67,1.45,2.32c.63.65,1.4,1.15,2.32,1.51s1.96.53,3.12.53,2.25-.18,3.17-.54,1.7-.87,2.32-1.52,1.1-1.42,1.43-2.31.49-1.87.49-2.93-.16-2.02-.49-2.91-.8-1.66-1.43-2.31-1.39-1.16-2.32-1.52-1.98-.54-3.17-.54-2.2.18-3.12.53-1.69.85-2.32,1.5-1.11,1.41-1.45,2.31c-.33.9-.5,1.88-.5,2.94Z"/>
    <path class="st0" d="M529.11,130.79v11.09h-8.57v-28.42h8.57v10.44h12.9v-10.44h8.57v28.42h-8.57v-11.09h-12.9Z"/>
    <path class="st0" d="M554.42,135.59h4.2l10.62-22.52h5.66l10.34,22.52h4.25v11.55h-7.14v-5.25h-20.79v5.25h-7.14v-11.55ZM566.85,135.59h10.25l-5.04-12.22-5.21,12.22Z"/>
    <path class="st0" d="M445.89,204.36v-28.42h8.57v21.53h12.9v-21.53h8.57v21.53h4.2v12.14h-7.14v-5.25h-27.11Z"/>
    <path class="st0" d="M514.97,175.93v28.42h-8.47v-16.26l-14.75,16.26h-7.65v-28.42h8.57v16.16l14.7-16.16h7.59Z"/>
    <path class="st0" d="M535.13,175.93c1.83,0,3.39.17,4.69.52,1.29.35,2.35.82,3.17,1.42s1.42,1.31,1.8,2.11.57,1.67.57,2.6c0,.86-.13,1.64-.39,2.35s-.59,1.32-.98,1.85-.83.96-1.29,1.31c-.46.35-.9.6-1.31.75.89.36,1.7.76,2.43,1.21s1.36.97,1.88,1.56.93,1.26,1.22,2.03.44,1.65.44,2.65c0,1.19-.21,2.28-.63,3.27-.42.99-1.03,1.84-1.85,2.55s-1.81,1.26-2.99,1.65c-1.18.39-2.54.58-4.07.58h-16.43v-28.42h13.74ZM529.96,180.71v6.81h1.85c.89,0,1.68-.04,2.37-.12s1.27-.24,1.74-.48.83-.58,1.07-1.03.36-1.04.36-1.77-.13-1.33-.39-1.77c-.26-.44-.63-.79-1.11-1.03-.48-.24-1.06-.4-1.75-.48s-1.47-.12-2.33-.12h-1.8ZM529.96,192.3v7.28h3.49c1.79,0,3.12-.29,3.99-.88s1.3-1.5,1.3-2.75c0-2.43-1.76-3.65-5.29-3.65h-3.49Z"/>
    <path class="st0" d="M560.7,175.93v28.42h-8.57v-28.42h8.57Z"/>
    <path class="st0" d="M586.59,204.36l-6.52-16.43-6.67,16.43h-8.96l12.82-28.81h5.68l12.55,28.81h-8.9Z"/>
    <path class="st0" d="M599.23,175.93h8.57v10.44h5c1.9,0,3.51.24,4.84.73,1.33.49,2.41,1.14,3.25,1.96s1.45,1.77,1.84,2.85.57,2.22.57,3.42-.23,2.39-.68,3.49-1.12,2.05-2,2.87-1.96,1.47-3.25,1.95-2.77.72-4.45.72h-13.7v-28.42ZM607.8,191.8v7.14h2.01c.9,0,1.66-.09,2.29-.27s1.12-.42,1.51-.74.66-.69.83-1.14.26-.93.26-1.47c0-.6-.07-1.12-.22-1.56s-.4-.8-.76-1.1c-.36-.29-.86-.51-1.49-.66-.63-.14-1.44-.21-2.42-.21h-2.01Z"/>
    <path class="st0" d="M636.24,193.26v11.09h-8.57v-28.42h8.57v10.44h12.9v-10.44h8.57v28.42h-8.57v-11.09h-12.9Z"/>
    <path class="st0" d="M694.62,190.12c0,1.96-.33,3.81-1,5.58s-1.68,3.32-3.03,4.66-3.03,2.4-5.04,3.19c-2.02.79-4.37,1.18-7.06,1.18-1.85,0-3.53-.19-5.04-.57s-2.88-.91-4.07-1.58-2.23-1.47-3.11-2.39c-.88-.92-1.6-1.92-2.18-3s-1.01-2.22-1.29-3.41-.42-2.41-.42-3.64c0-1.85.32-3.64.95-5.38.64-1.74,1.61-3.3,2.93-4.67s2.99-2.46,5.02-3.29,4.43-1.24,7.21-1.24,5.07.4,7.1,1.2c2.02.8,3.71,1.87,5.04,3.21s2.34,2.89,3,4.64c.66,1.76,1,3.6,1,5.53ZM671.1,190.12c0,1.07.17,2.05.5,2.94s.82,1.67,1.45,2.32c.63.65,1.4,1.15,2.32,1.51s1.96.53,3.12.53,2.25-.18,3.17-.54,1.7-.87,2.32-1.52,1.1-1.42,1.43-2.31.49-1.87.49-2.93-.16-2.02-.49-2.91-.8-1.66-1.43-2.31-1.39-1.16-2.32-1.52-1.98-.54-3.17-.54-2.2.18-3.12.53-1.69.85-2.32,1.5-1.11,1.41-1.45,2.31c-.33.9-.5,1.88-.5,2.94Z"/>
    <path class="st0" d="M713.43,197.22h-13.43v-6.85h13.43v6.85Z"/>
    <path class="st0" d="M733.59,175.93c1.83,0,3.39.17,4.69.52,1.29.35,2.35.82,3.17,1.42s1.42,1.31,1.8,2.11.57,1.67.57,2.6c0,.86-.13,1.64-.39,2.35s-.59,1.32-.98,1.85-.83.96-1.29,1.31c-.46.35-.9.6-1.31.75.89.36,1.7.76,2.43,1.21s1.36.97,1.88,1.56.93,1.26,1.22,2.03.44,1.65.44,2.65c0,1.19-.21,2.28-.62,3.27-.42.99-1.03,1.84-1.85,2.55s-1.81,1.26-2.99,1.65c-1.18.39-2.54.58-4.07.58h-16.43v-28.42h13.74ZM728.42,180.71v6.81h1.85c.89,0,1.68-.04,2.37-.12s1.27-.24,1.74-.48.83-.58,1.07-1.03.36-1.04.36-1.77-.13-1.33-.39-1.77c-.26-.44-.63-.79-1.11-1.03-.48-.24-1.06-.4-1.75-.48s-1.47-.12-2.33-.12h-1.8ZM728.42,192.3v7.28h3.49c1.79,0,3.12-.29,3.99-.88s1.3-1.5,1.3-2.75c0-2.43-1.76-3.65-5.29-3.65h-3.49Z"/>
    <path class="st0" d="M759.16,175.93v28.42h-8.57v-28.42h8.57Z"/>
    <path class="st0" d="M796.46,175.93v28.42h-8.47v-16.26l-14.75,16.26h-7.65v-28.42h8.57v16.16l14.7-16.16h7.59ZM788.79,166.89c-.18,1.22-.61,2.37-1.3,3.45s-1.6,1.96-2.72,2.64c-1.12.68-2.37,1.01-3.75,1.01-1.27,0-2.49-.31-3.64-.94s-2.09-1.49-2.82-2.57c-.72-1.09-1.15-2.28-1.27-3.58h3.65c.16.37.38.76.66,1.16s.7.79,1.28,1.17c.58.38,1.31.56,2.18.56,1.29,0,2.2-.28,2.75-.84s.99-1.24,1.33-2.05h3.65Z"/>
    <path class="st0" d="M828.48,202.22c-1.86.96-3.72,1.61-5.59,1.97s-3.74.53-5.63.53c-2.5,0-4.75-.35-6.74-1.06-1.99-.7-3.68-1.7-5.07-2.98s-2.45-2.82-3.18-4.61-1.1-3.77-1.1-5.95c0-1.67.2-3.19.61-4.56.4-1.38.97-2.6,1.69-3.68s1.59-2.02,2.59-2.81,2.11-1.45,3.31-1.98c1.2-.53,2.48-.92,3.83-1.17s2.74-.38,4.16-.38c1.2,0,2.34.08,3.42.23s2.08.33,3.01.54c.93.21,1.77.45,2.53.7.76.25,1.42.48,2,.69v7.55c-.4-.25-.89-.54-1.49-.89-.59-.35-1.27-.68-2.03-1s-1.6-.6-2.52-.82c-.92-.23-1.92-.34-2.98-.34-1.22,0-2.39.18-3.53.55s-2.14.9-3,1.6-1.57,1.54-2.09,2.53-.79,2.12-.79,3.37c0,1.08.22,2.1.66,3.06s1.05,1.79,1.85,2.5,1.74,1.27,2.83,1.68,2.3.62,3.61.62c1.15,0,2.21-.11,3.2-.33s1.88-.49,2.7-.8,1.53-.65,2.15-1,1.14-.67,1.57-.94v7.2Z"/>
    <path class="st0" d="M834.03,175.93h8.57v10.44h5c1.9,0,3.51.24,4.84.73,1.33.49,2.41,1.14,3.25,1.96s1.45,1.77,1.83,2.85.57,2.22.57,3.42-.23,2.39-.68,3.49-1.12,2.05-2,2.87-1.97,1.47-3.25,1.95-2.77.72-4.45.72h-13.7v-28.42ZM842.6,191.8v7.14h2.01c.9,0,1.67-.09,2.29-.27s1.12-.42,1.51-.74.66-.69.83-1.14.26-.93.26-1.47c0-.6-.07-1.12-.21-1.56s-.4-.8-.76-1.1c-.36-.29-.86-.51-1.49-.66-.63-.14-1.44-.21-2.42-.21h-2.01Z"/>
    <path class="st0" d="M886.83,182.64c-.57,0-1.06.03-1.46.09-.4.06-.75.19-1.08.38s-.64.48-.94.85-.66.88-1.06,1.53c-.42.68-.81,1.26-1.17,1.73-.36.47-.72.87-1.1,1.19-.38.32-.78.58-1.21.77s-.93.35-1.49.47c.57.05,1.13.19,1.66.4.53.21,1.07.55,1.61,1.01s1.1,1.06,1.69,1.81,1.22,1.7,1.89,2.83l5.04,8.65h-9.62l-4.49-7.98c-.33-.59-.62-1.08-.87-1.48s-.52-.72-.81-.96-.62-.42-.99-.52c-.38-.1-.84-.15-1.41-.15v11.09h-8.57v-28.42h8.57v10.44c.42,0,.79-.06,1.11-.17.31-.12.63-.33.95-.66.32-.32.68-.77,1.07-1.34s.87-1.32,1.45-2.24c.59-.93,1.12-1.72,1.6-2.38s.95-1.21,1.43-1.66.96-.81,1.46-1.07,1.07-.46,1.7-.59,1.36-.23,2.17-.27,1.77-.06,2.86-.06v6.71Z"/>
    <path class="st0" d="M922.22,190.12c0,1.96-.33,3.81-1,5.58s-1.68,3.32-3.03,4.66-3.03,2.4-5.04,3.19c-2.02.79-4.37,1.18-7.06,1.18-1.85,0-3.53-.19-5.04-.57s-2.88-.91-4.07-1.58-2.23-1.47-3.11-2.39c-.88-.92-1.6-1.92-2.18-3s-1.01-2.22-1.29-3.41-.42-2.41-.42-3.64c0-1.85.32-3.64.95-5.38.64-1.74,1.61-3.3,2.93-4.67s2.99-2.46,5.02-3.29,4.43-1.24,7.21-1.24,5.07.4,7.1,1.2c2.02.8,3.71,1.87,5.04,3.21s2.34,2.89,3,4.64c.66,1.76,1,3.6,1,5.53ZM898.69,190.12c0,1.07.17,2.05.5,2.94s.82,1.67,1.45,2.32c.63.65,1.4,1.15,2.32,1.51s1.96.53,3.12.53,2.25-.18,3.17-.54,1.7-.87,2.32-1.52,1.1-1.42,1.43-2.31.49-1.87.49-2.93-.16-2.02-.49-2.91-.8-1.66-1.43-2.31-1.39-1.16-2.32-1.52-1.98-.54-3.17-.54-2.2.18-3.12.53-1.69.85-2.32,1.5-1.11,1.41-1.45,2.31c-.33.9-.5,1.88-.5,2.94Z"/>
    <path class="st0" d="M940.65,175.93c1.83,0,3.39.17,4.69.52,1.29.35,2.35.82,3.17,1.42s1.42,1.31,1.8,2.11.57,1.67.57,2.6c0,.86-.13,1.64-.39,2.35s-.59,1.32-.98,1.85-.83.96-1.29,1.31c-.46.35-.9.6-1.31.75.89.36,1.7.76,2.43,1.21s1.36.97,1.88,1.56.93,1.26,1.22,2.03.44,1.65.44,2.65c0,1.19-.21,2.28-.62,3.27-.42.99-1.03,1.84-1.85,2.55s-1.81,1.26-2.99,1.65c-1.18.39-2.54.58-4.07.58h-16.43v-28.42h13.74ZM935.49,180.71v6.81h1.85c.89,0,1.68-.04,2.37-.12s1.27-.24,1.74-.48.83-.58,1.07-1.03.36-1.04.36-1.77-.13-1.33-.39-1.77c-.26-.44-.63-.79-1.11-1.03-.48-.24-1.06-.4-1.75-.48s-1.47-.12-2.33-.12h-1.8ZM935.49,192.3v7.28h3.49c1.79,0,3.12-.29,3.99-.88s1.3-1.5,1.3-2.75c0-2.43-1.76-3.65-5.29-3.65h-3.49Z"/>
    <path class="st0" d="M988.42,190.12c0,1.96-.33,3.81-1,5.58s-1.68,3.32-3.02,4.66-3.03,2.4-5.04,3.19c-2.02.79-4.37,1.18-7.07,1.18-1.85,0-3.53-.19-5.04-.57s-2.87-.91-4.07-1.58-2.23-1.47-3.11-2.39c-.88-.92-1.6-1.92-2.18-3s-1.01-2.22-1.29-3.41-.42-2.41-.42-3.64c0-1.85.32-3.64.95-5.38.64-1.74,1.61-3.3,2.93-4.67s2.99-2.46,5.02-3.29,4.43-1.24,7.21-1.24,5.07.4,7.1,1.2c2.02.8,3.71,1.87,5.04,3.21s2.34,2.89,3,4.64c.66,1.76.99,3.6.99,5.53ZM964.9,190.12c0,1.07.17,2.05.5,2.94s.82,1.67,1.45,2.32c.63.65,1.4,1.15,2.32,1.51s1.96.53,3.12.53,2.25-.18,3.17-.54,1.7-.87,2.32-1.52,1.1-1.42,1.42-2.31.49-1.87.49-2.93-.16-2.02-.49-2.91-.8-1.66-1.42-2.31-1.39-1.16-2.32-1.52-1.98-.54-3.17-.54-2.2.18-3.12.53-1.69.85-2.32,1.5-1.11,1.41-1.45,2.31c-.33.9-.5,1.88-.5,2.94Z"/>
    <path class="st0" d="M994.82,171.17c0,.77-.27,1.43-.81,1.98-.54.55-1.21.83-2,.83s-1.44-.28-1.99-.84-.82-1.22-.82-1.97.27-1.41.82-1.97,1.21-.84,1.99-.84,1.44.28,1.99.84.82,1.22.82,1.97ZM1001.51,175.93v28.42h-8.57v-28.42h8.57ZM1005.28,171.17c0,.77-.27,1.43-.81,1.98-.54.55-1.21.83-2,.83s-1.46-.28-2-.83c-.54-.55-.81-1.21-.81-1.98s.27-1.43.81-1.98c.54-.55,1.21-.83,2-.83s1.44.28,1.99.84.82,1.22.82,1.97Z"/>
    <path class="st0" d="M467.32,261.1v5.72h-21.43v-28.42h21.08v5.7h-12.51v5.21h11.94v5.72h-11.94v6.07h12.86Z"/>
    <path class="st0" d="M492.74,267.19h-8.31v-3.49c-2.53-.11-4.68-.48-6.44-1.12-1.76-.64-3.2-1.46-4.31-2.47s-1.91-2.17-2.41-3.49-.75-2.7-.75-4.16c0-1.57.27-3.03.82-4.36.55-1.33,1.39-2.5,2.52-3.49,1.13-.99,2.58-1.79,4.33-2.39s3.83-.96,6.23-1.07v-3.16h8.31v3.16c2.41.11,4.48.46,6.23,1.07s3.19,1.4,4.33,2.39c1.13.99,1.98,2.15,2.52,3.49.55,1.33.82,2.79.82,4.36,0,1.46-.25,2.85-.76,4.16s-1.31,2.47-2.42,3.49-2.54,1.84-4.31,2.47c-1.76.63-3.9,1.01-6.42,1.12v3.49ZM478.59,252.47c0,.77.11,1.49.34,2.16.23.68.58,1.27,1.06,1.77s1.08.91,1.82,1.2c.73.29,1.61.44,2.63.44v-11.22c-1.03,0-1.9.15-2.63.45s-1.34.71-1.82,1.22c-.48.51-.83,1.11-1.06,1.79s-.34,1.41-.34,2.17ZM498.58,252.47c0-.77-.11-1.49-.34-2.17s-.58-1.28-1.06-1.79c-.48-.51-1.08-.92-1.81-1.22s-1.61-.45-2.64-.45v11.22c1.03,0,1.9-.15,2.64-.44.73-.29,1.34-.69,1.81-1.2s.83-1.1,1.06-1.77c.23-.68.34-1.4.34-2.16Z"/>
    <path class="st0" d="M532.43,261.1v5.72h-21.43v-28.42h21.08v5.7h-12.51v5.21h11.94v5.72h-11.94v6.07h12.86Z"/>
    <path class="st0" d="M562.19,245.11c-.57,0-1.06.03-1.46.09-.4.06-.75.19-1.08.38s-.64.47-.94.85c-.31.38-.66.88-1.06,1.53-.42.68-.81,1.26-1.17,1.73-.36.47-.72.87-1.1,1.19-.38.32-.78.58-1.21.77s-.93.35-1.49.47c.57.05,1.13.19,1.66.4.53.21,1.07.55,1.61,1.01.54.46,1.1,1.06,1.69,1.81s1.22,1.7,1.89,2.83l5.04,8.65h-9.62l-4.49-7.98c-.33-.59-.62-1.08-.87-1.48s-.52-.72-.81-.96-.62-.42-.99-.52c-.38-.1-.84-.15-1.41-.15v11.1h-8.57v-28.42h8.57v10.44c.42,0,.79-.06,1.11-.17.31-.12.63-.33.95-.66.32-.32.68-.77,1.07-1.34s.87-1.32,1.45-2.23c.59-.93,1.12-1.72,1.6-2.38s.95-1.21,1.43-1.66.96-.81,1.46-1.07,1.07-.46,1.7-.59,1.36-.23,2.17-.27,1.77-.06,2.86-.06v6.71Z"/>
    <path class="st0" d="M595.38,238.4v6.29h-10.42v22.13h-8.57v-22.13h-10.42v-6.29h29.41Z"/>
    <path class="st0" d="M630.49,238.4v28.42h-8.47v-16.26l-14.75,16.26h-7.65v-28.42h8.57v16.16l14.7-16.16h7.59Z"/>
    <path class="st0" d="M650.65,238.4c1.83,0,3.39.17,4.69.52,1.29.35,2.35.82,3.17,1.42s1.42,1.31,1.8,2.11.57,1.67.57,2.6c0,.86-.13,1.64-.39,2.35-.26.7-.59,1.32-.98,1.85-.4.53-.83.96-1.29,1.31-.46.35-.9.6-1.31.75.89.36,1.7.76,2.43,1.21s1.36.97,1.88,1.56.93,1.27,1.22,2.03.44,1.65.44,2.64c0,1.19-.21,2.28-.63,3.27-.42.99-1.03,1.84-1.85,2.55s-1.81,1.26-2.99,1.65c-1.18.39-2.54.58-4.07.58h-16.43v-28.42h13.74ZM645.48,243.18v6.81h1.85c.89,0,1.68-.04,2.37-.12s1.27-.24,1.74-.48c.47-.24.83-.58,1.07-1.03.24-.45.36-1.04.36-1.78s-.13-1.33-.39-1.77c-.26-.44-.63-.79-1.11-1.03-.48-.24-1.06-.4-1.75-.48s-1.47-.12-2.33-.12h-1.8ZM645.48,254.77v7.28h3.49c1.79,0,3.12-.29,3.99-.88s1.3-1.5,1.3-2.75c0-2.43-1.76-3.65-5.29-3.65h-3.49Z"/>
    <path class="st0" d="M676.22,255.73v11.1h-8.57v-28.42h8.57v10.44h12.9v-10.44h8.57v28.42h-8.57v-11.1h-12.9Z"/>
    <path class="st0" d="M734.59,252.59c0,1.96-.33,3.81-1,5.58s-1.68,3.31-3.02,4.65-3.03,2.4-5.04,3.19c-2.02.79-4.37,1.18-7.07,1.18-1.85,0-3.53-.19-5.04-.57s-2.87-.91-4.07-1.58-2.23-1.46-3.11-2.39c-.88-.92-1.6-1.92-2.18-3s-1.01-2.22-1.29-3.41c-.28-1.2-.42-2.41-.42-3.64,0-1.85.32-3.64.95-5.38.64-1.74,1.61-3.3,2.93-4.67s2.99-2.46,5.02-3.29c2.03-.83,4.43-1.24,7.21-1.24s5.07.4,7.1,1.2c2.02.8,3.71,1.87,5.04,3.21s2.34,2.89,3,4.64c.66,1.76.99,3.6.99,5.53ZM711.07,252.59c0,1.07.17,2.05.5,2.94.33.89.82,1.67,1.45,2.32.63.65,1.4,1.15,2.32,1.51s1.96.53,3.12.53,2.25-.18,3.17-.54c.92-.36,1.7-.87,2.32-1.52.62-.65,1.1-1.42,1.42-2.31s.49-1.87.49-2.93-.16-2.02-.49-2.91-.8-1.66-1.42-2.31c-.62-.65-1.39-1.16-2.32-1.52-.92-.36-1.98-.54-3.17-.54s-2.2.18-3.12.53-1.69.86-2.32,1.5-1.11,1.41-1.45,2.31c-.33.9-.5,1.88-.5,2.94Z"/>
    <path class="st0" d="M765.41,264.69c-1.86.96-3.72,1.61-5.59,1.97s-3.74.53-5.63.53c-2.5,0-4.75-.35-6.74-1.06s-3.68-1.7-5.07-2.98-2.45-2.82-3.18-4.61-1.1-3.77-1.1-5.95c0-1.67.2-3.19.61-4.56.4-1.38.97-2.6,1.69-3.68s1.59-2.02,2.59-2.81,2.11-1.45,3.31-1.98c1.2-.53,2.48-.92,3.83-1.17,1.35-.25,2.74-.38,4.16-.38,1.2,0,2.34.08,3.42.23s2.08.33,3.01.54c.93.21,1.77.45,2.53.7.76.25,1.42.48,2,.69v7.55c-.4-.25-.89-.54-1.49-.89-.59-.35-1.27-.68-2.03-1-.76-.32-1.6-.6-2.52-.82-.92-.23-1.92-.34-2.98-.34-1.22,0-2.39.19-3.53.55s-2.14.9-3,1.6-1.57,1.54-2.09,2.53c-.53.99-.79,2.12-.79,3.37,0,1.08.22,2.1.66,3.05s1.05,1.79,1.85,2.5,1.74,1.27,2.83,1.68,2.3.62,3.61.62c1.15,0,2.21-.11,3.2-.33s1.88-.48,2.7-.8,1.53-.65,2.15-1.01,1.14-.67,1.57-.94v7.2Z"/>
    <path class="st0" d="M798.31,238.4v6.29h-10.42v22.13h-8.57v-22.13h-10.42v-6.29h29.41Z"/>
    <path class="st0" d="M811.15,238.4v28.42h-8.57v-28.42h8.57Z"/>
  </g>
</svg>